HIERARCHY
ROOT Hips
{
	OFFSET 0.000000 0.000000 0.000000
	CHANNELS 6 Xposition Yposition Zposition Zrotation Yrotation Xrotation 
	JOINT LHipJoint
	{
		OFFSET 0.000000 0.000000 0.000000
		CHANNELS 3 Zrotation Yrotation Xrotation
		JOINT LeftUpLeg
		{
			OFFSET 1.363060 -1.794630 0.839290
			CHANNELS 3 Zrotation Yrotation Xrotation
			JOINT LeftLeg
			{
				OFFSET 2.448110 -6.726130 0.000000
				CHANNELS 3 Zrotation Yrotation Xrotation
				JOINT LeftFoot
				{
					OFFSET 2.562200 -7.039590 0.000000
					CHANNELS 3 Zrotation Yrotation Xrotation
					JOINT LeftToeBase
					{
						OFFSET 0.157640 -0.433110 2.322550
						CHANNELS 3 Zrotation Yrotation Xrotation
						End Site
						{
							OFFSET 0.000000 0.000000 0.000000
						}
					}
				}
			}
		}
	}
	JOINT RHipJoint
	{
		OFFSET 0.000000 0.000000 0.000000
		CHANNELS 3 Zrotation Yrotation Xrotation
		JOINT RightUpLeg
		{
			OFFSET -1.305520 -1.794630 0.839290
			CHANNELS 3 Zrotation Yrotation Xrotation
			JOINT RightLeg
			{
				OFFSET -2.542530 -6.985550 0.000000
				CHANNELS 3 Zrotation Yrotation Xrotation
				JOINT RightFoot
				{
					OFFSET -2.568260 -7.056230 0.000000
					CHANNELS 3 Zrotation Yrotation Xrotation
					JOINT RightToeBase
					{
						OFFSET -0.164730 -0.452590 2.363150
						CHANNELS 3 Zrotation Yrotation Xrotation
						End Site
						{
							OFFSET 0.000000 0.000000 0.000000
						}
					}
				}
			}
		}
	}
	JOINT LowerBack
	{
		OFFSET 0.000000 0.000000 0.000000
		CHANNELS 3 Zrotation Yrotation Xrotation
		JOINT Spine
		{
			OFFSET 0.028270 2.035590 -0.193380
			CHANNELS 3 Zrotation Yrotation Xrotation
			JOINT Spine1
			{
				OFFSET 0.056720 2.048850 -0.042750
				CHANNELS 3 Zrotation Yrotation Xrotation
				JOINT Neck
				{
					OFFSET 0.000000 0.000000 0.000000
					CHANNELS 3 Zrotation Yrotation Xrotation
					JOINT Neck1
					{
						OFFSET -0.054170 1.746240 0.172020
						CHANNELS 3 Zrotation Yrotation Xrotation
						JOINT Head
						{
							OFFSET 0.104070 1.761360 -0.123970
							CHANNELS 3 Zrotation Yrotation Xrotation
							End Site
							{
								OFFSET 0.000000 0.000000 0.000000
							}
						}
					}
				}
				JOINT LeftShoulder
				{
					OFFSET 0.000000 0.000000 0.000000
					CHANNELS 3 Zrotation Yrotation Xrotation
					JOINT LeftArm
					{
						OFFSET 3.362410 1.200890 -0.311210
						CHANNELS 3 Zrotation Yrotation Xrotation
						JOINT LeftForeArm
						{
							OFFSET 4.983000 -0.000000 -0.000000
							CHANNELS 3 Zrotation Yrotation Xrotation
							JOINT LeftHand
							{
								OFFSET 3.483560 -0.000000 -0.000000
								CHANNELS 3 Zrotation Yrotation Xrotation
								JOINT LeftFingerBase
								{
									OFFSET 0.000000 0.000000 0.000000
									CHANNELS 3 Zrotation Yrotation Xrotation
									JOINT LeftHandIndex1
									{
										OFFSET 0.715260 -0.000000 -0.000000
										CHANNELS 3 Zrotation Yrotation Xrotation
										End Site
										{
											OFFSET 0.000000 0.000000 0.000000
										}
									}
								}
								JOINT LThumb
								{
									OFFSET 0.000000 0.000000 0.000000
									CHANNELS 3 Zrotation Yrotation Xrotation
									End Site
									{
										OFFSET 0.000000 0.000000 0.000000
									}
								}
							}
						}
					}
				}
				JOINT RightShoulder
				{
					OFFSET 0.000000 0.000000 0.000000
					CHANNELS 3 Zrotation Yrotation Xrotation
					JOINT RightArm
					{
						OFFSET -3.136600 1.374050 -0.404650
						CHANNELS 3 Zrotation Yrotation Xrotation
						JOINT RightForeArm
						{
							OFFSET -5.241900 -0.000000 -0.000000
							CHANNELS 3 Zrotation Yrotation Xrotation
							JOINT RightHand
							{
								OFFSET -3.444170 -0.000000 -0.000000
								CHANNELS 3 Zrotation Yrotation Xrotation
								JOINT RightFingerBase
								{
									OFFSET 0.000000 0.000000 0.000000
									CHANNELS 3 Zrotation Yrotation Xrotation
									JOINT RightHandIndex1
									{
										OFFSET -0.622530 -0.000000 -0.000000
										CHANNELS 3 Zrotation Yrotation Xrotation
										End Site
										{
											OFFSET 0.000000 0.000000 0.000000
										}
									}
								}
								JOINT RThumb
								{
									OFFSET 0.000000 0.000000 0.000000
									CHANNELS 3 Zrotation Yrotation Xrotation
									End Site
									{
										OFFSET 0.000000 0.000000 0.000000
									}
								}
							}
						}
					}
				}
			}
		}
	}
}
MOTION
Frames: 10
Frame Time: 0.008333
-0.285828 18.096736 -4.723426 0.092629 -3.349025 4.031000 -2.549024 3.634247 5.525535 -14.029702 4.239640 -5.909967 19.674611 18.006708 87.114799 2.222688 10.454253 37.148645 0.030227 -1.003263 -2.759035 1.798886 -2.701862 2.333385 20.948813 14.406882 -23.296001 -1.532754 -9.612722 30.005361 1.353281 -6.567534 4.352232 -0.451921 -4.311558 11.955109 0.485061 -2.102513 9.824509 3.283003 -2.817338 8.521931 0.336508 -0.983474 -11.546306 -2.074207 2.214822 -3.739409 -0.020536 2.919206 -3.748267 -0.497462 1.494074 -2.226071 -4.792953 4.979866 -1.645726 -75.612176 12.043640 48.617198 108.257513 -65.201429 -80.617277 0.422267 -1.768120 -23.600004 38.973771 6.422297 7.037984 -7.125000 0.000000 0.000000 11.038332 40.875164 -1.138460 5.010534 -4.327654 -3.032528 72.666567 -20.711393 36.792549 -66.201048 57.004056 -49.011371 2.115968 1.050021 4.660011 -45.060911 27.668113 -24.473110 7.125000 0.000000 0.000000 -10.230787 3.967574 -11.086721
-0.289208 18.056593 -4.540999 -0.047322 -3.521123 3.833769 -2.482127 3.616442 5.445925 -13.552625 4.458444 -6.882050 20.213826 18.035704 89.024482 2.210957 9.666778 36.699532 0.062482 -1.478390 -4.068504 1.740301 -2.735329 2.385056 21.328775 14.728707 -22.941203 -1.793798 -9.916753 31.116716 1.462948 -6.948321 3.372327 -0.433364 -4.222674 11.704328 0.608348 -2.012891 10.111628 3.297062 -2.684159 8.739832 0.261101 -0.908177 -11.593498 -1.978078 2.202747 -3.942305 -0.115015 2.918998 -3.821410 -0.538185 1.492822 -2.225813 -4.797882 4.978231 -1.672109 -75.740013 12.400016 48.261985 107.168303 -65.340884 -79.915126 0.421051 -1.810261 -23.418211 38.949582 6.445314 7.091152 -7.125000 0.000000 0.000000 11.036197 40.961691 -1.114379 5.020929 -4.284389 -2.979611 72.790062 -19.713900 36.890888 -66.861123 57.164721 -49.620533 2.108360 1.069625 4.753411 -45.277154 27.441525 -24.420531 7.125000 0.000000 0.000000 -10.413562 3.744923 -11.252964
-0.292587 18.016450 -4.358572 -0.187273 -3.693221 3.636537 -2.415230 3.598637 5.366315 -13.075547 4.677248 -7.854133 20.753041 18.064700 90.934165 2.199226 8.879303 36.250419 0.094736 -1.953516 -5.377974 1.681716 -2.768796 2.436727 21.708738 15.050531 -22.586405 -2.054841 -10.220784 32.228071 1.572614 -7.329108 2.392422 -0.414807 -4.133791 11.453546 0.731635 -1.923269 10.398747 3.311121 -2.550980 8.957733 0.185695 -0.832879 -11.640691 -1.881950 2.190673 -4.145201 -0.209493 2.918790 -3.894553 -0.578908 1.491570 -2.225556 -4.802812 4.976597 -1.698492 -75.867849 12.756391 47.906772 106.079092 -65.480338 -79.212975 0.419836 -1.852402 -23.236417 38.925393 6.468331 7.144321 -7.125000 0.000000 0.000000 11.034061 41.048218 -1.090299 5.031324 -4.241125 -2.926694 72.913556 -18.716408 36.989227 -67.521198 57.325386 -50.229695 2.100753 1.089228 4.846811 -45.493397 27.214936 -24.367952 7.125000 0.000000 0.000000 -10.596337 3.522272 -11.419207
-0.294877 17.975159 -4.176939 -0.411059 -3.827113 3.468726 -2.343189 3.565207 5.270380 -12.521019 4.781042 -8.984416 21.272248 18.075986 92.807270 2.256687 7.826924 36.129240 0.141830 -2.373962 -6.542918 1.635409 -2.794068 2.495558 22.182929 15.244663 -22.192020 -2.278829 -10.457391 33.163343 1.621920 -7.512430 1.503594 -0.371508 -3.899921 10.797195 0.919312 -1.859511 10.649641 3.400146 -2.441888 9.151298 0.100199 -0.770445 -11.664720 -1.810821 2.202621 -4.195435 -0.348280 2.941984 -4.105381 -0.633777 1.502300 -2.291411 -4.811070 4.974550 -1.725204 -76.053108 13.169064 47.517593 105.092829 -65.578251 -78.581193 0.419841 -1.891966 -23.099355 38.844898 6.450992 7.147456 -7.125000 0.000000 0.000000 10.975426 41.072270 -1.077767 5.034597 -4.200692 -2.873288 72.963109 -17.720481 37.110331 -68.221708 57.502236 -50.874949 2.093341 1.105484 4.883494 -45.669254 27.082593 -24.364626 7.125000 0.000000 0.000000 -10.731476 3.403092 -11.548986
-0.296868 17.933552 -3.995526 -0.657930 -3.950484 3.309016 -2.269732 3.527474 5.169949 -11.945163 4.853167 -10.158261 21.785945 18.082396 94.670302 2.333202 6.701601 36.098361 0.193010 -2.779351 -7.668067 1.592483 -2.817084 2.556360 22.683066 15.403634 -21.786734 -2.492613 -10.675432 34.050128 1.654604 -7.641378 0.639846 -0.321395 -3.626126 10.029164 1.124719 -1.802874 10.890558 3.509815 -2.339430 9.338161 0.011925 -0.711553 -11.682371 -1.746576 2.221183 -4.203631 -0.499267 2.971623 -4.354122 -0.692542 1.516328 -2.375471 -4.820244 4.972390 -1.752007 -76.254179 13.597240 47.119062 104.134913 -65.664725 -77.968788 0.420183 -1.930821 -22.974610 38.748899 6.422540 7.136815 -7.125000 0.000000 0.000000 10.901234 41.079118 -1.068415 5.035910 -4.161038 -2.819747 72.992301 -16.724986 37.237705 -68.933353 57.683542 -51.530142 2.085984 1.120818 4.904559 -45.833991 26.976202 -24.374862 7.125000 0.000000 0.000000 -10.853498 3.312405 -11.668725
-0.298766 17.891560 -3.814071 -0.929450 -4.078388 3.164541 -2.193113 3.492308 5.070562 -11.340691 4.936842 -11.321081 22.294864 18.088187 96.514091 2.404490 5.586521 36.046647 0.238536 -3.141430 -8.672928 1.549625 -2.840100 2.616706 23.206365 15.560493 -21.377944 -2.702169 -10.887532 34.919721 1.681058 -7.749721 -0.228503 -0.273118 -3.360737 9.284881 1.352028 -1.746316 11.112596 3.630568 -2.233881 9.519375 -0.086101 -0.652470 -11.692240 -1.683286 2.241869 -4.202273 -0.649197 3.003357 -4.607304 -0.751159 1.531383 -2.462253 -4.829824 4.969266 -1.778675 -76.452655 14.032457 46.721721 103.188166 -65.748760 -77.363067 0.420086 -1.969055 -22.862079 38.663166 6.379858 7.117021 -7.125000 0.000000 0.000000 10.835313 41.068507 -1.064678 5.036533 -4.121828 -2.766395 73.019697 -15.727560 37.369093 -69.633526 57.861004 -52.174915 2.078944 1.135583 4.917357 -45.978020 26.886541 -24.385013 7.125000 0.000000 0.000000 -10.959390 3.235256 -11.772912
-0.299404 17.844320 -3.632056 -1.537853 -4.268234 3.228262 -2.073291 3.492230 4.985443 -10.345136 5.178380 -12.333224 22.738485 18.085510 98.094894 2.404341 4.611429 35.710201 0.206797 -2.911599 -8.033879 1.507710 -2.863126 2.670810 24.046199 15.688488 -20.921268 -2.853932 -11.018452 35.554352 1.622363 -7.576457 -1.159720 -0.249922 -3.210217 8.865132 1.878665 -1.690830 11.076611 3.902814 -2.086103 9.623395 -0.317415 -0.590784 -11.595763 -1.633059 2.291581 -4.070350 -0.784695 3.063732 -4.921178 -0.807751 1.560471 -2.586226 -4.844939 4.952965 -1.803512 -76.615658 14.563920 46.340657 102.394057 -65.799464 -76.848686 0.414002 -1.998809 -22.916481 38.717729 6.142698 6.972134 -7.125000 0.000000 0.000000 10.882443 40.819272 -1.137692 5.027737 -4.088676 -2.715627 73.022554 -14.703734 37.555352 -70.176926 57.985912 -52.677285 2.076243 1.142569 4.817172 -45.839047 27.025540 -24.393997 7.125000 0.000000 0.000000 -10.844843 3.343138 -11.664550
-0.300042 17.797079 -3.450042 -2.146257 -4.458080 3.291983 -1.953468 3.492152 4.900324 -9.349580 5.419918 -13.345368 23.182106 18.082834 99.675697 2.404192 3.636338 35.373754 0.175058 -2.681768 -7.394830 1.465794 -2.886152 2.724914 24.886032 15.816482 -20.464592 -3.005696 -11.149372 36.188983 1.563668 -7.403194 -2.090937 -0.226725 -3.059696 8.445383 2.405303 -1.635344 11.040626 4.175059 -1.938325 9.727415 -0.548729 -0.529099 -11.499287 -1.582832 2.341292 -3.938426 -0.920193 3.124107 -5.235053 -0.864344 1.589559 -2.710199 -4.860055 4.936664 -1.828349 -76.778661 15.095382 45.959594 101.599947 -65.850168 -76.334306 0.407918 -2.028564 -22.970883 38.772291 5.905539 6.827247 -7.125000 0.000000 0.000000 10.929573 40.570036 -1.210707 5.018941 -4.055523 -2.664859 73.025411 -13.679908 37.741610 -70.720326 58.110821 -53.179655 2.073542 1.149554 4.716987 -45.700074 27.164538 -24.402981 7.125000 0.000000 0.000000 -10.730295 3.451021 -11.556189
-0.300456 17.759614 -3.265818 -2.706950 -4.647847 3.383171 -1.836193 3.472086 4.799344 -8.434791 5.613161 -14.466262 23.607311 18.082135 101.183113 2.404290 2.668493 35.086434 0.150440 -2.497853 -6.883788 1.429320 -2.905390 2.783214 25.642503 15.877742 -19.979797 -3.131938 -11.249817 36.715353 1.493789 -7.194740 -2.955179 -0.203139 -2.897048 7.992546 2.895566 -1.577304 10.993702 4.418192 -1.795819 9.806128 -0.768430 -0.466894 -11.407319 -1.532836 2.385095 -3.787716 -1.038884 3.174612 -5.559666 -0.915813 1.613523 -2.841631 -4.873210 4.920503 -1.852805 -76.946614 15.653246 45.571525 100.864397 -65.894233 -75.851413 0.402839 -2.056514 -23.067216 38.905479 5.808659 6.814104 -7.125000 0.000000 0.000000 11.062063 40.505621 -1.241527 5.011902 -4.020952 -2.615527 73.038072 -12.632731 37.947164 -71.168647 58.203208 -53.592031 2.071259 1.153468 4.659158 -45.578621 27.296777 -24.420020 7.125000 0.000000 0.000000 -10.626747 3.559838 -11.459942
-0.300456 17.740125 -3.077532 -3.179918 -4.837466 3.524861 -1.723601 3.415268 4.669199 -7.668508 5.717607 -15.787116 23.998655 18.085074 102.555592 2.404843 1.713970 34.889444 0.138915 -2.398365 -6.608116 1.402851 -2.917661 2.849229 26.245695 15.816296 -19.443298 -3.211254 -11.294228 37.042664 1.403346 -6.921582 -3.696276 -0.178838 -2.712101 7.478869 3.318949 -1.514568 10.926662 4.607794 -1.663007 9.838307 -0.966780 -0.403737 -11.323640 -1.483264 2.418034 -3.602464 -1.126675 3.206969 -5.904025 -0.957861 1.628067 -2.986775 -4.882760 4.904599 -1.876559 -77.123666 16.259653 45.170577 100.236519 -65.926093 -75.426415 0.399607 -2.081145 -23.240650 39.183234 5.969713 7.043198 -7.125000 0.000000 0.000000 11.351505 40.781035 -1.194766 5.008091 -3.983770 -2.568836 73.068758 -11.542619 38.188195 -71.442147 58.235797 -53.838934 2.069748 1.151735 4.679210 -45.489385 27.416589 -24.451869 7.125000 0.000000 0.000000 -10.543423 3.670372 -11.385970
